<svg version="1.1" id="Layer_1" xmlns="http://www.w3.org/2000/svg" xmlns:xlink="http://www.w3.org/1999/xlink" x="0px" y="0px"
	 width="100%" viewBox="0 0 1266 1266" enable-background="new 0 0 1266 1266" xml:space="preserve">
<path fill="#4441FF" opacity="1.000000" stroke="none" 
	d="
M605.000000,1.000004 
	C624.020874,1.000000 643.041809,1.000000 662.736328,1.384642 
	C682.698425,3.510646 702.012329,5.015404 721.265808,7.082358 
	C732.761169,8.316443 744.324768,9.722965 755.569702,12.305761 
	C776.102539,17.021847 796.478821,22.458292 816.816223,27.977772 
	C846.317017,35.984138 874.606262,47.363419 902.303589,60.149372 
	C915.758179,66.360405 928.854736,73.389633 941.873657,80.488098 
	C951.972412,85.994392 962.054443,91.666496 971.516663,98.176537 
	C990.682312,111.362633 1009.781128,124.700333 1028.222412,138.867203 
	C1042.480713,149.820602 1056.056519,161.742096 1069.261841,173.961426 
	C1080.075073,183.967316 1090.027588,194.922791 1100.113403,205.689789 
	C1108.440796,214.579514 1116.809204,223.484940 1124.426147,232.972229 
	C1133.576782,244.369949 1141.958618,256.385376 1150.658813,268.144196 
	C1166.341431,289.340393 1180.216064,311.737122 1192.371216,335.060608 
	C1202.811890,355.094543 1212.544556,375.610016 1220.907837,396.583496 
	C1229.963379,419.293243 1238.187378,442.468903 1244.743042,466.007050 
	C1252.888062,495.251923 1259.316772,525.009399 1262.013916,555.390808 
	C1263.392090,570.916138 1264.658203,586.451294 1266.028320,601.977356 
	C1266.148315,603.336182 1266.666626,604.659973 1267.000000,606.000000 
	C1267.000000,624.354248 1267.000000,642.708435 1266.616211,661.738220 
	C1266.161255,667.904846 1266.489990,673.436218 1265.941650,678.879211 
	C1264.498901,693.200134 1262.823608,707.502075 1260.954834,721.774170 
	C1259.475220,733.074280 1258.142700,744.443115 1255.724976,755.559692 
	C1251.944702,772.942322 1248.073242,790.375122 1242.838013,807.354370 
	C1235.679688,830.570618 1228.013672,853.702026 1219.050659,876.268188 
	C1211.430298,895.453918 1202.453491,914.221680 1192.500244,932.306641 
	C1187.864258,940.730286 1187.114258,949.205750 1186.093140,957.957397 
	C1184.727417,969.662964 1183.933350,981.438171 1183.029663,993.193848 
	C1181.945312,1007.298401 1181.007080,1021.414246 1179.999023,1035.524658 
	C1179.658447,1040.289307 1179.365234,1045.058716 1178.932495,1049.815063 
	C1177.653320,1063.873535 1176.236572,1077.919922 1175.027710,1091.984131 
	C1174.209717,1101.500244 1173.781738,1111.049927 1172.946655,1120.564331 
	C1171.741821,1134.292236 1170.208252,1147.991699 1169.039429,1161.722290 
	C1168.173462,1171.895630 1167.777832,1182.108398 1166.971069,1192.287598 
	C1165.738647,1207.837891 1164.376099,1223.378418 1162.980225,1238.915161 
	C1162.323364,1246.226318 1161.460571,1253.518921 1160.664551,1261.071655 
	C1152.151001,1260.362671 1143.984253,1259.597290 1135.803955,1259.022339 
	C1125.127563,1258.271973 1114.441895,1257.650635 1103.757935,1257.012939 
	C1086.651367,1255.991821 1069.541748,1255.019653 1052.435425,1253.994507 
	C1041.905273,1253.363525 1031.380493,1252.639038 1020.849915,1252.016602 
	C1003.407104,1250.985596 985.959534,1250.035400 968.517822,1248.987183 
	C958.664307,1248.395020 948.822021,1247.618042 938.968628,1247.025635 
	C921.518005,1245.976318 904.065308,1244.957275 886.608398,1244.020386 
	C878.183167,1243.568237 869.737732,1243.472046 861.317627,1242.951904 
	C854.937561,1242.557739 848.594727,1241.431641 842.214600,1241.198730 
	C833.060852,1240.864258 823.862671,1240.630859 814.735046,1241.192383 
	C810.503601,1241.452881 806.462646,1243.981567 802.217712,1244.983887 
	C772.620911,1251.971802 743.087097,1259.335449 712.670959,1262.007812 
	C696.958252,1263.388428 681.235779,1264.657593 665.522339,1266.030518 
	C664.329102,1266.134766 663.173218,1266.666748 662.000000,1267.000000 
	C643.312439,1267.000000 624.624878,1267.000000 605.263672,1266.615356 
	C588.057922,1264.823730 571.492310,1263.722534 555.003784,1261.916870 
	C540.897217,1260.372192 526.686646,1258.888428 512.865601,1255.826904 
	C490.549866,1250.883789 468.352570,1245.230103 446.404572,1238.847290 
	C418.547546,1230.745972 391.482849,1220.250000 365.361176,1207.620483 
	C348.078888,1199.264771 330.886322,1190.526733 314.495697,1180.573242 
	C294.098450,1168.186401 274.001404,1155.137817 254.827057,1140.952637 
	C236.327133,1127.266479 218.529236,1112.461182 201.606964,1096.863159 
	C186.553970,1082.988037 172.640762,1067.776733 159.114639,1052.373657 
	C146.185883,1037.650879 134.178909,1022.095215 122.172073,1006.591797 
	C104.322639,983.544434 89.208771,958.670349 75.640854,932.941528 
	C66.466194,915.543579 58.440678,897.523926 50.291359,879.604919 
	C38.945301,854.656799 30.401581,828.610962 23.243488,802.258362 
	C15.267522,772.894836 8.691797,743.111450 5.988585,712.663086 
	C4.623302,697.284851 3.342312,681.899170 1.969728,666.521606 
	C1.863228,665.328369 1.333187,664.172974 0.999999,663.000000 
	C1.000000,644.312439 1.000000,625.624878 1.383642,606.261353 
	C2.842294,591.639648 3.489754,577.644165 5.105565,563.761292 
	C6.934145,548.050354 8.858887,532.276855 12.130970,516.824768 
	C17.132442,493.205811 22.612627,469.637177 29.194910,446.417206 
	C37.106045,418.509491 47.909134,391.561584 60.341579,365.340118 
	C66.625259,352.087097 73.412567,339.053192 80.465836,326.190918 
	C86.154106,315.817841 92.278763,305.651794 98.757545,295.752350 
	C107.571770,282.284393 116.276459,268.664948 126.167236,256.000092 
	C141.055359,236.936295 156.237579,218.008102 172.572128,200.193481 
	C190.199020,180.969376 209.140640,162.922089 229.739777,146.771255 
	C241.665176,137.421097 253.172836,127.429382 265.740082,119.030556 
	C288.003174,104.151894 310.385620,89.289612 333.746979,76.266113 
	C353.565002,65.217972 374.464508,55.845921 395.562134,47.428192 
	C418.549438,38.256496 441.988922,29.852482 465.827057,23.271969 
	C495.133972,15.181787 524.933044,8.663173 555.373596,5.983230 
	C570.741699,4.630242 586.115417,3.341099 601.481873,1.969613 
	C602.673950,1.863221 603.828186,1.333156 605.000000,1.000004 
M543.018555,381.507111 
	C518.191223,364.215485 492.035156,349.440765 464.128448,337.540588 
	C438.856415,326.763824 412.619171,320.518890 385.456390,318.151550 
	C369.805389,316.787476 353.980560,317.844421 338.678284,321.376373 
	C324.036133,324.756012 309.464752,328.941193 295.399292,334.206757 
	C272.654816,342.721375 251.885666,355.060333 234.559769,372.239105 
	C226.726425,380.005951 220.337967,389.264069 213.593079,398.074585 
	C211.486404,400.826477 210.358475,404.327667 208.229752,408.593536 
	C214.220749,406.352966 218.619247,404.242279 223.254776,403.064728 
	C235.479111,399.959442 247.714386,396.731934 260.122375,394.568512 
	C269.622437,392.912109 279.384674,392.316925 289.044800,392.163483 
	C296.555328,392.044189 304.173798,392.834991 311.592316,394.107300 
	C324.703247,396.355896 337.875031,398.621643 350.702423,402.067474 
	C372.217224,407.846924 392.646576,416.578491 412.050354,427.571411 
	C421.082336,432.688324 430.090698,437.872437 438.864990,443.413635 
	C458.807526,456.007965 477.921509,469.759949 495.759521,485.235046 
	C510.637115,498.141937 525.633850,510.913422 540.393982,523.953003 
	C549.651978,532.131836 558.849426,540.415955 567.583618,549.143555 
	C586.979431,568.524780 606.208252,588.078430 625.229675,607.827148 
	C637.823059,620.901978 649.996521,634.384155 662.247253,647.785217 
	C670.121094,656.398376 678.061707,664.973816 685.493042,673.962524 
	C696.270813,686.999023 706.779236,700.267395 717.101074,713.669006 
	C728.601196,728.600342 740.082825,743.565674 750.974121,758.940002 
	C760.062866,771.769897 768.573975,785.035583 776.815186,798.431641 
	C785.212646,812.081848 793.392639,825.902588 800.880859,840.064758 
	C807.871704,853.286194 814.406677,866.817322 820.074402,880.649719 
	C825.455444,893.782715 830.054626,907.313782 833.887695,920.981140 
	C837.644836,934.377625 840.003418,948.166504 842.998657,961.887939 
	C843.209106,961.903625 843.736389,962.068542 844.199219,961.959534 
	C863.951843,957.308289 882.890625,950.257019 901.033386,941.319641 
	C915.018921,934.430115 928.693787,926.830505 942.100342,918.862610 
	C964.729492,905.413574 985.676880,889.573425 1004.817261,871.504700 
	C1012.459961,864.289856 1019.306824,856.196655 1026.198730,848.228882 
	C1043.320679,828.433960 1053.149536,805.429626 1054.915894,779.295044 
	C1056.222412,759.961853 1053.582764,740.981323 1047.997314,722.408508 
	C1040.203613,696.492432 1027.760864,672.797363 1012.778381,650.472778 
	C1003.268188,636.302063 992.747864,622.799744 982.465149,609.160034 
	C974.234741,598.242798 965.697876,587.555969 957.254333,576.800354 
	C955.387512,574.422363 953.589966,572.962952 949.902771,574.432007 
	C935.132019,580.317200 920.174072,585.732239 905.288269,591.328735 
	C887.664429,597.954590 870.047485,604.598633 852.420471,611.216064 
	C831.176208,619.191467 809.924622,627.147278 788.767334,635.077454 
	C783.966248,628.973328 779.437012,623.052917 774.737122,617.271118 
	C762.780029,602.561707 750.849304,587.828613 738.716858,573.264282 
	C724.372131,556.044189 710.041382,538.803711 695.299194,521.926147 
	C683.920105,508.898773 672.171509,496.168793 660.114075,483.766602 
	C649.134338,472.472992 637.722656,461.575775 626.130066,450.907379 
	C611.255066,437.218201 596.297119,423.589783 580.829895,410.583282 
	C568.859985,400.517731 556.052551,391.448090 543.018555,381.507111 
M635.513123,819.045471 
	C628.487793,809.665833 621.691406,800.103699 614.389771,790.944336 
	C598.907837,771.523499 583.398926,752.114441 567.443542,733.084106 
	C556.477844,720.005005 544.895325,707.429993 533.309631,694.887268 
	C520.942688,681.498779 508.480560,668.182129 495.637024,655.254272 
	C479.822205,639.335693 463.606354,623.814270 447.497620,608.189392 
	C430.115509,591.329346 412.682129,574.521973 395.221466,557.743225 
	C385.748169,548.639832 375.574646,540.165894 363.327148,535.370972 
	C354.216858,531.804321 344.374908,529.325928 334.658203,528.339783 
	C327.110840,527.573914 319.415741,529.873718 311.961517,532.855713 
	C293.730896,540.148621 281.964783,558.041199 281.116364,576.276550 
	C280.272980,594.403198 287.667084,609.655151 300.077362,622.460205 
	C307.674927,630.299438 315.790405,637.638000 323.701233,645.171997 
	C329.682068,650.867859 335.770538,656.451843 341.700134,662.200073 
	C356.721283,676.761902 371.842010,691.226440 386.621368,706.030945 
	C403.870422,723.309509 420.689026,741.017151 437.892792,758.341614 
	C464.427704,785.062500 491.080566,811.666931 517.782776,838.220764 
	C533.400024,853.751160 542.399658,871.814941 541.075806,894.416321 
	C540.351318,906.785583 536.011414,917.494446 527.852661,926.592285 
	C514.411255,941.580688 496.543457,943.864441 478.162476,941.734680 
	C460.668640,939.707825 444.902130,931.975281 430.566254,921.905334 
	C421.647919,915.640869 413.183075,908.645020 405.034058,901.393738 
	C395.618958,893.015747 386.546326,884.219299 377.735535,875.203369 
	C364.254425,861.408386 351.124756,847.269897 338.000916,833.440613 
	C306.049835,849.055847 275.180969,864.142212 244.200897,879.282898 
	C244.800110,880.392700 245.187515,881.478271 245.872849,882.321838 
	C251.938446,889.788818 257.880585,897.366455 264.196686,904.617371 
	C277.022247,919.341003 289.617493,934.304810 303.136414,948.373230 
	C315.735504,961.484497 329.040955,973.983276 342.716553,985.974976 
	C355.713470,997.371521 369.308441,1008.140869 383.144318,1018.513855 
	C408.844971,1037.781982 436.894043,1052.827026 467.206757,1063.625854 
	C486.525543,1070.508301 506.504089,1074.329712 526.828552,1075.830078 
	C541.464233,1076.910278 556.106262,1075.584839 570.688293,1073.140015 
	C589.281311,1070.022705 607.074036,1064.509033 623.936584,1056.361694 
	C636.798279,1050.147339 649.243713,1042.996582 661.524292,1035.675293 
	C673.649170,1028.446777 683.138000,1018.479309 690.039185,1005.981750 
	C700.175903,987.624939 700.942566,967.894470 697.716492,948.093201 
	C694.418457,927.850159 687.094238,908.698975 678.088440,890.205200 
	C666.043884,865.471252 651.573120,842.223450 635.513123,819.045471 
M769.592773,197.988098 
	C767.182739,197.602997 764.782166,197.139923 762.361084,196.845718 
	C748.883667,195.207901 735.438232,192.800110 721.912170,192.182556 
	C699.361755,191.152985 676.856445,192.584610 654.631409,197.011597 
	C642.847290,199.358887 630.960510,201.283539 619.301758,204.140686 
	C607.841919,206.949066 596.585815,210.609879 585.288757,214.055313 
	C574.114929,217.463165 562.937073,220.879822 551.880066,224.642349 
	C540.996338,228.345901 530.262085,232.488342 518.001343,236.972534 
	C643.634644,299.134644 743.945435,389.245178 827.693726,500.358948 
	C907.563171,471.909027 984.647461,436.673157 1060.187378,398.107880 
	C1059.788818,396.895233 1059.765381,396.540924 1059.583862,396.311981 
	C1049.039185,383.011810 1039.167725,369.094330 1027.740356,356.600037 
	C1015.204712,342.894257 1001.480713,330.233612 987.810730,317.620209 
	C976.497253,307.181274 964.864929,297.017273 952.731506,287.555206 
	C936.988281,275.278046 921.108826,263.041992 904.357178,252.230484 
	C888.593811,242.056747 872.114258,232.679123 855.067810,224.878754 
	C828.058289,212.519379 799.716370,203.666336 769.592773,197.988098 
z"/>
<path fill="#FFFFFF" opacity="1.000000" stroke="none" 
	d="
M1267.000000,605.531372 
	C1266.666626,604.659973 1266.148315,603.336182 1266.028320,601.977356 
	C1264.658203,586.451294 1263.392090,570.916138 1262.013916,555.390808 
	C1259.316772,525.009399 1252.888062,495.251923 1244.743042,466.007050 
	C1238.187378,442.468903 1229.963379,419.293243 1220.907837,396.583496 
	C1212.544556,375.610016 1202.811890,355.094543 1192.371216,335.060608 
	C1180.216064,311.737122 1166.341431,289.340393 1150.658813,268.144196 
	C1141.958618,256.385376 1133.576782,244.369949 1124.426147,232.972229 
	C1116.809204,223.484940 1108.440796,214.579514 1100.113403,205.689789 
	C1090.027588,194.922791 1080.075073,183.967316 1069.261841,173.961426 
	C1056.056519,161.742096 1042.480713,149.820602 1028.222412,138.867203 
	C1009.781128,124.700333 990.682312,111.362633 971.516663,98.176537 
	C962.054443,91.666496 951.972412,85.994392 941.873657,80.488098 
	C928.854736,73.389633 915.758179,66.360405 902.303589,60.149372 
	C874.606262,47.363419 846.317017,35.984138 816.816223,27.977772 
	C796.478821,22.458292 776.102539,17.021847 755.569702,12.305761 
	C744.324768,9.722965 732.761169,8.316443 721.265808,7.082358 
	C702.012329,5.015404 682.698425,3.510646 663.204956,1.384642 
	C864.260498,1.000000 1065.520996,1.000000 1267.000000,1.000000 
	C1267.000000,202.354172 1267.000000,403.708435 1267.000000,605.531372 
z"/>
<path fill="#FFFFFF" opacity="1.000000" stroke="none" 
	d="
M604.531372,1.000004 
	C603.828186,1.333156 602.673950,1.863221 601.481873,1.969613 
	C586.115417,3.341099 570.741699,4.630242 555.373596,5.983230 
	C524.933044,8.663173 495.133972,15.181787 465.827057,23.271969 
	C441.988922,29.852482 418.549438,38.256496 395.562134,47.428192 
	C374.464508,55.845921 353.565002,65.217972 333.746979,76.266113 
	C310.385620,89.289612 288.003174,104.151894 265.740082,119.030556 
	C253.172836,127.429382 241.665176,137.421097 229.739777,146.771255 
	C209.140640,162.922089 190.199020,180.969376 172.572128,200.193481 
	C156.237579,218.008102 141.055359,236.936295 126.167236,256.000092 
	C116.276459,268.664948 107.571770,282.284393 98.757545,295.752350 
	C92.278763,305.651794 86.154106,315.817841 80.465836,326.190918 
	C73.412567,339.053192 66.625259,352.087097 60.341579,365.340118 
	C47.909134,391.561584 37.106045,418.509491 29.194910,446.417206 
	C22.612627,469.637177 17.132442,493.205811 12.130970,516.824768 
	C8.858887,532.276855 6.934145,548.050354 5.105565,563.761292 
	C3.489754,577.644165 2.842294,591.639648 1.383642,605.792725 
	C1.000000,404.406311 1.000000,202.812592 1.000000,1.000000 
	C202.020844,1.000000 403.041748,1.000000 604.531372,1.000004 
z"/>
<path fill="#FFFFFF" opacity="1.000000" stroke="none" 
	d="
M0.999999,663.468628 
	C1.333187,664.172974 1.863228,665.328369 1.969728,666.521606 
	C3.342312,681.899170 4.623302,697.284851 5.988585,712.663086 
	C8.691797,743.111450 15.267522,772.894836 23.243488,802.258362 
	C30.401581,828.610962 38.945301,854.656799 50.291359,879.604919 
	C58.440678,897.523926 66.466194,915.543579 75.640854,932.941528 
	C89.208771,958.670349 104.322639,983.544434 122.172073,1006.591797 
	C134.178909,1022.095215 146.185883,1037.650879 159.114639,1052.373657 
	C172.640762,1067.776733 186.553970,1082.988037 201.606964,1096.863159 
	C218.529236,1112.461182 236.327133,1127.266479 254.827057,1140.952637 
	C274.001404,1155.137817 294.098450,1168.186401 314.495697,1180.573242 
	C330.886322,1190.526733 348.078888,1199.264771 365.361176,1207.620483 
	C391.482849,1220.250000 418.547546,1230.745972 446.404572,1238.847290 
	C468.352570,1245.230103 490.549866,1250.883789 512.865601,1255.826904 
	C526.686646,1258.888428 540.897217,1260.372192 555.003784,1261.916870 
	C571.492310,1263.722534 588.057922,1264.823730 604.795044,1266.615356 
	C403.739563,1267.000000 202.479141,1267.000000 1.000000,1267.000000 
	C1.000000,1065.979126 1.000000,864.958252 0.999999,663.468628 
z"/>
<path fill="#FFFFFF" opacity="1.000000" stroke="none" 
	d="
M662.468628,1267.000000 
	C663.173218,1266.666748 664.329102,1266.134766 665.522339,1266.030518 
	C681.235779,1264.657593 696.958252,1263.388428 712.670959,1262.007812 
	C743.087097,1259.335449 772.620911,1251.971802 802.217712,1244.983887 
	C806.462646,1243.981567 810.503601,1241.452881 814.735046,1241.192383 
	C823.862671,1240.630859 833.060852,1240.864258 842.214600,1241.198730 
	C848.594727,1241.431641 854.937561,1242.557739 861.317627,1242.951904 
	C869.737732,1243.472046 878.183167,1243.568237 886.608398,1244.020386 
	C904.065308,1244.957275 921.518005,1245.976318 938.968628,1247.025635 
	C948.822021,1247.618042 958.664307,1248.395020 968.517822,1248.987183 
	C985.959534,1250.035400 1003.407104,1250.985596 1020.849915,1252.016602 
	C1031.380493,1252.639038 1041.905273,1253.363525 1052.435425,1253.994507 
	C1069.541748,1255.019653 1086.651367,1255.991821 1103.757935,1257.012939 
	C1114.441895,1257.650635 1125.127563,1258.271973 1135.803955,1259.022339 
	C1143.984253,1259.597290 1152.151001,1260.362671 1160.664551,1261.071655 
	C1161.460571,1253.518921 1162.323364,1246.226318 1162.980225,1238.915161 
	C1164.376099,1223.378418 1165.738647,1207.837891 1166.971069,1192.287598 
	C1167.777832,1182.108398 1168.173462,1171.895630 1169.039429,1161.722290 
	C1170.208252,1147.991699 1171.741821,1134.292236 1172.946655,1120.564331 
	C1173.781738,1111.049927 1174.209717,1101.500244 1175.027710,1091.984131 
	C1176.236572,1077.919922 1177.653320,1063.873535 1178.932495,1049.815063 
	C1179.365234,1045.058716 1179.658447,1040.289307 1179.999023,1035.524658 
	C1181.007080,1021.414246 1181.945312,1007.298401 1183.029663,993.193848 
	C1183.933350,981.438171 1184.727417,969.662964 1186.093140,957.957397 
	C1187.114258,949.205750 1187.864258,940.730286 1192.500244,932.306641 
	C1202.453491,914.221680 1211.430298,895.453918 1219.050659,876.268188 
	C1228.013672,853.702026 1235.679688,830.570618 1242.838013,807.354370 
	C1248.073242,790.375122 1251.944702,772.942322 1255.724976,755.559692 
	C1258.142700,744.443115 1259.475220,733.074280 1260.954834,721.774170 
	C1262.823608,707.502075 1264.498901,693.200134 1265.941650,678.879211 
	C1266.489990,673.436218 1266.161255,667.904846 1266.616211,662.206909 
	C1267.000000,863.593750 1267.000000,1065.187500 1267.000000,1267.000000 
	C1065.645874,1267.000000 864.291565,1267.000000 662.468628,1267.000000 
z"/>
<path fill="#FFFFFF" opacity="1.000000" stroke="none" 
	d="
M543.317993,381.721405 
	C556.052551,391.448090 568.859985,400.517731 580.829895,410.583282 
	C596.297119,423.589783 611.255066,437.218201 626.130066,450.907379 
	C637.722656,461.575775 649.134338,472.472992 660.114075,483.766602 
	C672.171509,496.168793 683.920105,508.898773 695.299194,521.926147 
	C710.041382,538.803711 724.372131,556.044189 738.716858,573.264282 
	C750.849304,587.828613 762.780029,602.561707 774.737122,617.271118 
	C779.437012,623.052917 783.966248,628.973328 788.767334,635.077454 
	C809.924622,627.147278 831.176208,619.191467 852.420471,611.216064 
	C870.047485,604.598633 887.664429,597.954590 905.288269,591.328735 
	C920.174072,585.732239 935.132019,580.317200 949.902771,574.432007 
	C953.589966,572.962952 955.387512,574.422363 957.254333,576.800354 
	C965.697876,587.555969 974.234741,598.242798 982.465149,609.160034 
	C992.747864,622.799744 1003.268188,636.302063 1012.778381,650.472778 
	C1027.760864,672.797363 1040.203613,696.492432 1047.997314,722.408508 
	C1053.582764,740.981323 1056.222412,759.961853 1054.915894,779.295044 
	C1053.149536,805.429626 1043.320679,828.433960 1026.198730,848.228882 
	C1019.306824,856.196655 1012.459961,864.289856 1004.817261,871.504700 
	C985.676880,889.573425 964.729492,905.413574 942.100342,918.862610 
	C928.693787,926.830505 915.018921,934.430115 901.033386,941.319641 
	C882.890625,950.257019 863.951843,957.308289 844.199219,961.959534 
	C843.736389,962.068542 843.209106,961.903625 842.998657,961.887939 
	C840.003418,948.166504 837.644836,934.377625 833.887695,920.981140 
	C830.054626,907.313782 825.455444,893.782715 820.074402,880.649719 
	C814.406677,866.817322 807.871704,853.286194 800.880859,840.064758 
	C793.392639,825.902588 785.212646,812.081848 776.815186,798.431641 
	C768.573975,785.035583 760.062866,771.769897 750.974121,758.940002 
	C740.082825,743.565674 728.601196,728.600342 717.101074,713.669006 
	C706.779236,700.267395 696.270813,686.999023 685.493042,673.962524 
	C678.061707,664.973816 670.121094,656.398376 662.247253,647.785217 
	C649.996521,634.384155 637.823059,620.901978 625.229675,607.827148 
	C606.208252,588.078430 586.979431,568.524780 567.583618,549.143555 
	C558.849426,540.415955 549.651978,532.131836 540.393982,523.953003 
	C525.633850,510.913422 510.637115,498.141937 495.759521,485.235046 
	C477.921509,469.759949 458.807526,456.007965 438.864990,443.413635 
	C430.090698,437.872437 421.082336,432.688324 412.050354,427.571411 
	C392.646576,416.578491 372.217224,407.846924 350.702423,402.067474 
	C337.875031,398.621643 324.703247,396.355896 311.592316,394.107300 
	C304.173798,392.834991 296.555328,392.044189 289.044800,392.163483 
	C279.384674,392.316925 269.622437,392.912109 260.122375,394.568512 
	C247.714386,396.731934 235.479111,399.959442 223.254776,403.064728 
	C218.619247,404.242279 214.220749,406.352966 208.229752,408.593536 
	C210.358475,404.327667 211.486404,400.826477 213.593079,398.074585 
	C220.337967,389.264069 226.726425,380.005951 234.559769,372.239105 
	C251.885666,355.060333 272.654816,342.721375 295.399292,334.206757 
	C309.464752,328.941193 324.036133,324.756012 338.678284,321.376373 
	C353.980560,317.844421 369.805389,316.787476 385.456390,318.151550 
	C412.619171,320.518890 438.856415,326.763824 464.128448,337.540588 
	C492.035156,349.440765 518.191223,364.215485 543.317993,381.721405 
z"/>
<path fill="#FFFFFF" opacity="1.000000" stroke="none" 
	d="
M635.704590,819.363037 
	C651.573120,842.223450 666.043884,865.471252 678.088440,890.205200 
	C687.094238,908.698975 694.418457,927.850159 697.716492,948.093201 
	C700.942566,967.894470 700.175903,987.624939 690.039185,1005.981750 
	C683.138000,1018.479309 673.649170,1028.446777 661.524292,1035.675293 
	C649.243713,1042.996582 636.798279,1050.147339 623.936584,1056.361694 
	C607.074036,1064.509033 589.281311,1070.022705 570.688293,1073.140015 
	C556.106262,1075.584839 541.464233,1076.910278 526.828552,1075.830078 
	C506.504089,1074.329712 486.525543,1070.508301 467.206757,1063.625854 
	C436.894043,1052.827026 408.844971,1037.781982 383.144318,1018.513855 
	C369.308441,1008.140869 355.713470,997.371521 342.716553,985.974976 
	C329.040955,973.983276 315.735504,961.484497 303.136414,948.373230 
	C289.617493,934.304810 277.022247,919.341003 264.196686,904.617371 
	C257.880585,897.366455 251.938446,889.788818 245.872849,882.321838 
	C245.187515,881.478271 244.800110,880.392700 244.200897,879.282898 
	C275.180969,864.142212 306.049835,849.055847 338.000916,833.440613 
	C351.124756,847.269897 364.254425,861.408386 377.735535,875.203369 
	C386.546326,884.219299 395.618958,893.015747 405.034058,901.393738 
	C413.183075,908.645020 421.647919,915.640869 430.566254,921.905334 
	C444.902130,931.975281 460.668640,939.707825 478.162476,941.734680 
	C496.543457,943.864441 514.411255,941.580688 527.852661,926.592285 
	C536.011414,917.494446 540.351318,906.785583 541.075806,894.416321 
	C542.399658,871.814941 533.400024,853.751160 517.782776,838.220764 
	C491.080566,811.666931 464.427704,785.062500 437.892792,758.341614 
	C420.689026,741.017151 403.870422,723.309509 386.621368,706.030945 
	C371.842010,691.226440 356.721283,676.761902 341.700134,662.200073 
	C335.770538,656.451843 329.682068,650.867859 323.701233,645.171997 
	C315.790405,637.638000 307.674927,630.299438 300.077362,622.460205 
	C287.667084,609.655151 280.272980,594.403198 281.116364,576.276550 
	C281.964783,558.041199 293.730896,540.148621 311.961517,532.855713 
	C319.415741,529.873718 327.110840,527.573914 334.658203,528.339783 
	C344.374908,529.325928 354.216858,531.804321 363.327148,535.370972 
	C375.574646,540.165894 385.748169,548.639832 395.221466,557.743225 
	C412.682129,574.521973 430.115509,591.329346 447.497620,608.189392 
	C463.606354,623.814270 479.822205,639.335693 495.637024,655.254272 
	C508.480560,668.182129 520.942688,681.498779 533.309631,694.887268 
	C544.895325,707.429993 556.477844,720.005005 567.443542,733.084106 
	C583.398926,752.114441 598.907837,771.523499 614.389771,790.944336 
	C621.691406,800.103699 628.487793,809.665833 635.704590,819.363037 
z"/>
<path fill="#FFFFFF" opacity="1.000000" stroke="none" 
	d="
M770.031311,197.994247 
	C799.716370,203.666336 828.058289,212.519379 855.067810,224.878754 
	C872.114258,232.679123 888.593811,242.056747 904.357178,252.230484 
	C921.108826,263.041992 936.988281,275.278046 952.731506,287.555206 
	C964.864929,297.017273 976.497253,307.181274 987.810730,317.620209 
	C1001.480713,330.233612 1015.204712,342.894257 1027.740356,356.600037 
	C1039.167725,369.094330 1049.039185,383.011810 1059.583862,396.311981 
	C1059.765381,396.540924 1059.788818,396.895233 1060.187378,398.107880 
	C984.647461,436.673157 907.563171,471.909027 827.693726,500.358948 
	C743.945435,389.245178 643.634644,299.134644 518.001343,236.972534 
	C530.262085,232.488342 540.996338,228.345901 551.880066,224.642349 
	C562.937073,220.879822 574.114929,217.463165 585.288757,214.055313 
	C596.585815,210.609879 607.841919,206.949066 619.301758,204.140686 
	C630.960510,201.283539 642.847290,199.358887 654.631409,197.011597 
	C676.856445,192.584610 699.361755,191.152985 721.912170,192.182556 
	C735.438232,192.800110 748.883667,195.207901 762.361084,196.845718 
	C764.782166,197.139923 767.182739,197.602997 770.031311,197.994247 
z"/>
</svg>